<svg xmlns="http://www.w3.org/2000/svg" xmlns:xlink="http://www.w3.org/1999/xlink" width="129" height="125" viewBox="0 0 129 125">
  <defs>
    <filter id="Rectangle_2" x="0" y="0" width="129" height="125" filterUnits="userSpaceOnUse">
      <feOffset input="SourceAlpha"/>
      <feGaussianBlur stdDeviation="10" result="blur"/>
      <feFlood flood-color="#656565" flood-opacity="0.2"/>
      <feComposite operator="in" in2="blur"/>
      <feComposite in="SourceGraphic"/>
    </filter>
  </defs>
  <g id="Left_side_arrow" data-name="Left side arrow" transform="translate(194 412) rotate(180)">
    <g transform="matrix(-1, 0, 0, -1, 194, 412)" filter="url(#Rectangle_2)">
      <rect id="Rectangle_2-2" data-name="Rectangle 2" width="69" height="65" transform="translate(99 95) rotate(180)"/>
    </g>
    <path id="Shape_1" data-name="Shape 1" d="M104.223,365.439l5.056-5.209a.752.752,0,0,1,1.084,0l.459.473a.8.8,0,0,1,.224.558.812.812,0,0,1-.224.565l-2.95,3.045h9.371a.759.759,0,0,1,.756.776v.669a.79.79,0,0,1-.756.811h-9.4l2.983,3.063a.8.8,0,0,1,0,1.109l-.459.471a.753.753,0,0,1-1.084,0l-5.056-5.209a.814.814,0,0,1,0-1.121Z" transform="translate(19.06 -16)" fill="#fff"/>
  </g>
</svg>
